<svg width="22" height="22" viewBox="0 0 22 22" fill="none" xmlns="http://www.w3.org/2000/svg">
  <path
    d="M15.5535 21.7812H4.24015C4.23301 21.7812 4.22588 21.7812 4.21875 21.7812L7.30332 16.3662H12.4964C12.779 16.3662 13.0401 16.2125 13.1817 15.9621C13.5526 15.3043 14.3103 13.9632 14.9473 12.8341C15.283 12.2396 15.5854 11.7039 15.7812 11.3575C15.8515 11.2326 15.8871 11.0927 15.8871 10.9534C15.8871 10.8135 15.8515 10.6736 15.7812 10.5487C15.5854 10.2023 15.283 9.66667 14.9473 9.07216C14.3103 7.94308 13.5526 6.60195 13.1817 5.9447C13.0401 5.69435 12.779 5.54003 12.4964 5.54003H7.30332L4.21875 0.125555C4.22588 0.125 4.23301 0.125 4.24015 0.125H15.5535C15.8361 0.125 16.0973 0.279319 16.2388 0.52967L21.8955 10.5487C21.9657 10.6736 22.0014 10.8135 22.0014 10.9534C22.0014 11.0927 21.9657 11.2326 21.8955 11.3575L16.2388 21.3771C16.0973 21.6269 15.8361 21.7812 15.5535 21.7812Z"
    fill="#49BC74" />
  <path
    d="M3.21171 10.9506C3.21281 10.8097 3.1777 10.6681 3.10582 10.541C2.53906 9.53735 1.07194 6.93836 0.505169 5.93473C0.364163 5.68438 0.364163 5.3763 0.505169 5.1265L3.12228 0.490833C3.20294 0.369265 3.2984 0.28822 3.39113 0.234375L9.19322 10.541C9.26509 10.6687 9.30021 10.8108 9.29911 10.9534C9.30021 11.0955 9.26509 11.2376 9.19322 11.3653L3.39113 21.6719C3.2984 21.6181 3.20294 21.537 3.12228 21.4155L0.505169 16.7798C0.364163 16.53 0.364163 16.2219 0.505169 15.9721C1.07194 14.9679 2.53906 12.3689 3.10582 11.3653C3.1777 11.2387 3.21281 11.0972 3.21171 10.9556V10.9534V10.9506Z"
    fill="#49BC74" />
</svg>