<svg width="512" height="512" viewBox="0 0 512 512" fill="none" xmlns="http://www.w3.org/2000/svg">
<rect width="512" height="512" rx="32" fill="white"/>
<path fill-rule="evenodd" clip-rule="evenodd" d="M254.274 31.0066C307.717 30.5965 359.561 49.2233 400.523 83.5519L381.011 106.834C345.579 77.1403 300.734 61.0283 254.507 61.3831C208.279 61.7379 163.687 78.5363 128.716 108.77C93.7439 139.005 70.6764 180.7 63.6433 226.391C58.2475 261.446 62.5601 297.095 75.8161 329.564L157.896 291.189C159.133 269.972 162.49 261.088 168.559 245.336L263.465 196.284L265.597 200.55L302.92 182.422L307.185 188.82L348.773 167.493C359.883 167.836 364.364 171.773 371.166 181.355L419.152 158.962L414.886 137.635L425.55 133.37L433.014 153.63L439.412 150.431L444.744 162.161L358.37 202.682V211.213L328.512 227.208V233.606L301.853 245.336L298.654 254.933L285.858 259.199C301.597 284.636 312.76 293.884 338.109 298.654L328.512 338.109C296.979 333.477 280.143 323.427 251.735 291.189C256.025 305.917 258.427 314.168 257.066 316.782L245.337 321.047C239.974 322.368 236.927 320.883 231.474 316.782C228.954 321.445 242.067 371.888 245.337 370.099C248.607 368.311 220.483 385.862 205.882 377.564C205.257 371.112 204.798 365.442 204.388 360.379C202.809 340.886 201.959 330.391 195.218 318.915C192.186 318.832 189.652 318.621 187.406 318.434C179.838 317.804 175.534 317.445 166.427 323.18C155.15 335.851 150.788 347.439 146.169 359.712C142.356 369.842 138.368 380.438 130.171 392.493L122.289 397.419C143.167 417.158 168.315 432.179 196.049 441.159C240.03 455.399 287.644 453.519 330.366 435.855C373.087 418.191 408.125 385.897 429.207 344.754C450.289 303.612 456.038 256.309 445.424 211.315L474.99 204.341C487.26 256.358 480.615 311.044 456.242 358.607C431.869 406.171 391.362 443.506 341.973 463.927C292.583 484.348 237.538 486.522 186.692 470.059C135.846 453.596 92.5206 419.572 64.4734 374.078C36.4262 328.584 25.4888 274.592 33.6196 221.77C41.7503 168.947 68.4184 120.744 108.849 85.7904C149.279 50.8372 200.831 31.4168 254.274 31.0066Z" fill="black"/>
<path d="M228.761 116.308C236.596 131.759 242.727 137.384 255.906 143.453C242.61 149.867 236.144 154.996 228.761 170.598C220.654 153.927 214.739 147.852 201.616 143.453C214.993 137.728 220.734 131.422 228.761 116.308Z" fill="black"/>
<path d="M149.963 175.912C154.168 184.206 157.459 187.226 164.533 190.483C157.396 193.926 153.925 196.68 149.963 205.054C145.611 196.106 142.436 192.845 135.392 190.483C142.572 187.411 145.654 184.026 149.963 175.912Z" fill="black"/>
</svg>
