<svg width="191" height="191" viewBox="0 0 191 191" fill="none" xmlns="http://www.w3.org/2000/svg">
<circle cx="95.5" cy="95.5" r="95.5" fill="#3D3D3D"/>
<path d="M88.288 111.584V109.536C88.288 98.656 92.512 94.688 99.808 88.928L103.904 85.728C108.128 82.4 110.432 78.432 110.56 72.544C110.56 64.736 105.44 58.72 95.072 58.72C83.424 58.72 78.688 65.76 78.688 74.976H67.68C67.68 61.28 76.512 49.12 95.072 49.12C111.072 49.12 121.824 58.336 121.824 72.288C121.824 80.736 118.24 87.136 112.096 91.872L106.72 96.096C101.088 100.448 98.528 102.752 98.528 109.536V111.584H88.288ZM93.408 141.152C88.416 141.152 85.856 137.952 85.856 133.344C85.856 128.864 88.416 125.664 93.408 125.664C98.272 125.664 100.96 128.864 100.96 133.344C100.96 137.952 98.272 141.152 93.408 141.152Z" fill="white"/>
</svg>
