<svg width="221" height="191" viewBox="0 0 221 191" fill="none" xmlns="http://www.w3.org/2000/svg">
<path d="M96.6507 23.9386C102.812 13.2883 118.188 13.2883 124.349 23.9386L207.108 166.988C213.279 177.654 205.582 191 193.259 191H27.7412C15.4181 191 7.7209 177.654 13.8919 166.988L96.6507 23.9386Z" fill="#F67730"/>
<path d="M107.592 123.584L104.904 74.688V62.4H116.936V74.688L113.608 123.584H107.592ZM110.792 153.152C105.8 153.152 103.24 149.952 103.24 145.344C103.24 140.864 105.8 137.664 110.792 137.664C115.656 137.664 118.344 140.864 118.344 145.344C118.344 149.952 115.656 153.152 110.792 153.152Z" fill="#0D0D0D"/>
</svg>
